<svg version="1.1" id="Layer_1" xmlns="http://www.w3.org/2000/svg" viewBox="0 0 512 512" xml:space="preserve">
    <path style="fill:#FF8E00;" d="M455.627,88.212L311.964,56.865l-55.966,9.676l-31.347,77.634l31.347,78.662l55.966,8.648l143.663-31.347c30.908,0,55.964-25.056,55.964-55.964C511.589,113.268,486.534,88.212,455.627,88.212z"/>
    <path style="fill:#FFBA00;" d="M256.003,88.212h-0.005H130.655H56.376c-0.001,0-0.002,0-0.002,0v111.926h52.73h146.895h0.004c30.906-0.001,55.961-25.055,55.962-55.961v-0.005C311.962,113.267,286.908,88.213,256.003,88.212z"/>
    <path style="fill:#FF8E00;" d="M56.373,88.212l-20.898,55.964l20.898,55.964c30.908,0,55.964-25.056,55.964-55.964C112.337,113.268,87.281,88.212,56.373,88.212z"/>
    <path style="fill:#E04C00;" d="M452.033,200.139H109.105l-0.002,119.113h59.557L340.125,512h171.465V259.695C511.589,226.803,484.926,200.139,452.033,200.139z"/>
    <rect x="109.108" y="259.699" style="fill:#FFB995;" width="107.154" height="59.556"/>
    <path style="fill:#E04C00;" d="M109.105,200.139l-20.898,59.556l20.898,59.556c32.891-0.001,59.554-26.665,59.554-59.556S141.996,200.14,109.105,200.139z"/>
    <path style="fill:#FF7D3C;" d="M340.125,259.695c0-32.891-26.663-59.555-59.554-59.556H109.105c32.891,0.001,59.554,26.665,59.554,59.556l0,0v59.556v47.16v50.393l73.244,21.95L263.853,512l0,0h76.27V366.412v-47.16L340.125,259.695L340.125,259.695z"/>
    <polygon style="fill:#FFB995;" points="263.853,512 263.853,416.806 168.659,416.806 "/>
    <path style="fill:#FF7D3C;" d="M109.105,200.139c-0.001,0-0.002,0-0.002,0c-32.892,0-59.557,26.665-59.557,59.556s26.665,59.556,59.556,59.556h0.002V200.139H109.105z"/>
    <path style="fill:#FFBA00;" d="M56.373,88.212c-30.908,0-55.964,25.056-55.964,55.964s25.056,55.964,55.964,55.964V88.212z"/>
    <path style="fill:#2D64BC;" d="M467.483,0H296.019l-31.347,44.106l31.347,44.106h171.465c24.359,0,44.106-19.746,44.106-44.106S491.843,0,467.483,0z"/>
    <path style="fill:#6499F3;" d="M296.019,0H130.655v88.212h165.363c24.359,0,44.106-19.746,44.106-44.106S320.377,0,296.019,0z"/>
    <path style="fill:#2D64BC;" d="M130.655,0l-20.898,44.106l20.898,44.106c24.359,0,44.106-19.746,44.106-44.106S155.014,0,130.655,0z"/>
    <path style="fill:#6499F3;" d="M130.655,0c-24.359,0-44.106,19.746-44.106,44.106s19.746,44.106,44.106,44.106V0z"/>
</svg>